# xmcd
#
# Track frame offsets: 
#        150
#        3444
#        5645
#        9441
#        15403
#        22476
#        30496
#        32797
#        40605
#        41697
#        47654
#        56741
#        58658
#        67963
#        70485
#        73450
#        75651
#        76610
#        78307
#        79573
#        82779
#        92574
#        101420
#        110588
#        120151
#        123151
#        131024
#        145756
#        146525
#        160922
#        162715
#        177478
#        181029
#        198927
#        214819
#        218891
#        223574
#        240898
#        247401
#        264362
#        293856
#
# Disc length: 4048 seconds
#
# Revision: 0
# Processed by: cddbd v1.5.2PL0 Copyright (c) Steve Scherf et al.
# Submitted via: ExactAudioCopy v0.95b4
#
DISCID=300fce29
DTITLE=The Beatles  - Strawberry Lane - Disc 1  FLAC
DYEAR=1900
DGENRE=
TTITLE0=George Martin on Strawberry Fields Forever
TTITLE1=Strawberry Fields Forever (Warmup)
TTITLE2=Strawberry Fields Forever (Take 1)
TTITLE3=Strawberry Fields Forever (Take 2)
TTITLE4=Strawberry Fields Forever (Take 3)
TTITLE5=Strawberry Fields Forever (Take 4)
TTITLE6=Strawberry Fields Forever (Take 5)
TTITLE7=Strawberry Fields Forever (Take 6)
TTITLE8=Strawberry Fields Forever (Rehearsal)
TTITLE9=Strawberry Fields Forever (Electric guitar overdub rehearsal)
TTITLE10=Strawberry Fields Forever (Electric guitar overdub)
TTITLE11=Strawberry Fields Forever (Playback and chat)
TTITLE12=Strawberry Fields Forever (Double tracking vocal)
TTITLE13=Strawberry Fields Forever (Playback)
TTITLE14=Strawberry Fields Forever (Take 1)
TTITLE15=Strawberry Fields Forever (Take 2)
TTITLE16=Strawberry Fields Forever (Take 3)
TTITLE17=Strawberry Fields Forever (Take 4)
TTITLE18=Strawberry Fields Forever (Take 5)
TTITLE19=Strawberry Fields Forever (Take 6)
TTITLE20=Strawberry Fields Forever (Take 7)
TTITLE21=Strawberry Fields Forever (Take 8)
TTITLE22=Vocal Overdub Rehearsal)
TTITLE23=Vocal Overdub Onto Take 7)
TTITLE24=Strawberry Fields Forever (Tape loop and backward speak)
TTITLE25=Strawberry Fields Forever (Take 1 with George Martin)
TTITLE26=Strawberry Fields Forever (Take 1)
TTITLE27=George Martin on remakes 1 and 2)
TTITLE28=Strawberry Fields Forever (Take 2)
TTITLE29=Strawberry Fields Forever (Take 3)
TTITLE30=Strawberry Fields Forever (Take 4)
TTITLE31=Strawberry Fields Forever (Take 5)
TTITLE32=Strawberry Fields Forever (Take 6)
TTITLE33=Strawberry Fields Forever (Take 7)
TTITLE34=Strawberry Fields Forever (Take 7 with George Martin)
TTITLE35=George Martin on remakes 3
TTITLE36=Strawberry Fields Forever (Take 25)
TTITLE37=Strawberry Fields Forever (Take 26 with George martin)
TTITLE38=Strawberry Fields Forever (Take 26)
TTITLE39=Penny Lane (Overdub sessions)
TTITLE40=Strawberry Fields Forever (Stereo track)
EXTD=
EXTT0=
EXTT1=
EXTT2=
EXTT3=
EXTT4=
EXTT5=
EXTT6=
EXTT7=
EXTT8=
EXTT9=
EXTT10=
EXTT11=
EXTT12=
EXTT13=
EXTT14=
EXTT15=
EXTT16=
EXTT17=
EXTT18=
EXTT19=
EXTT20=
EXTT21=
EXTT22=
EXTT23=
EXTT24=
EXTT25=
EXTT26=
EXTT27=
EXTT28=
EXTT29=
EXTT30=
EXTT31=
EXTT32=
EXTT33=
EXTT34=
EXTT35=
EXTT36=
EXTT37=
EXTT38=
EXTT39=
EXTT40=
PLAYORDER=
